<svg id="レイヤー_1" data-name="レイヤー 1" xmlns="http://www.w3.org/2000/svg" xmlns:xlink="http://www.w3.org/1999/xlink" viewBox="0 0 286.04 94.59"><defs><style>.cls-1{fill:none;}.cls-2{clip-path:url(#clip-path);}.cls-3{fill:#aedef7;}.cls-4,.cls-6{fill:#7fa66d;}.cls-5{clip-path:url(#clip-path-2);}.cls-6{stroke:#7fa66d;stroke-miterlimit:10;stroke-width:1.5px;}.cls-7{fill:#b8872c;}.cls-8{fill:#d7a340;}.cls-9{fill:#e0bb3a;}.cls-10{fill:#f5ce40;}.cls-11{fill:#6e4725;}.cls-12{fill:#e8cc93;}.cls-13{fill:#fff;}.cls-14{fill:#4c9789;}.cls-15{fill:#345591;}</style><clipPath id="clip-path"><circle class="cls-1" cx="45.48" cy="45.48" r="45.48"/></clipPath><clipPath id="clip-path-2"><path class="cls-1" d="M-2,47.37c0,27.3,21.38,48.68,47.75,48.68S93.46,74.67,93.46,47.37Z"/></clipPath></defs><title>アートボード 1</title><g class="cls-2"><circle class="cls-3" cx="45.48" cy="45.48" r="45.48"/><path class="cls-4" d="M-2,47.37a47.75,47.75,0,1,0,95.5,0Z"/><g class="cls-5"><path class="cls-6" d="M97.57,61c-3.67-1.11-12-3.65-16.95-5.22-11.15-3.55-16.08-27.33-17.8-30.43,7.6-4.23,5.3-15.85.17-16.94-1.41.83-3,2.75-4.38,4.9-1-2.66-2.88-4.69-5-4.76-3.19,2.71-6,13.47-6,13.47h.05a11.8,11.8,0,0,0-4.18,2c-5,3.78-10.18,7-11.22,7.67-3,2-1.51,6.68,1.19,7.21,3.93.77,15.34.14,17.25,3.08a16.6,16.6,0,0,1,2.18,5.17,24.21,24.21,0,0,0-6.56,5.68l-6.68.94C35,50.6,29.21,49,27.59,50.31s.77,9.3,7.62,9.08c-1,6.26,1.83,9.8,5.37,11.29a2.45,2.45,0,0,0,2.91,1.92l.26-.08,0,.09c-.12,0-.23,0-.35,0,0,.2.1.4.14.6A3,3,0,0,0,44.3,76a32.6,32.6,0,0,0,1.85,4.1A8.94,8.94,0,0,0,45,84.24v3.47a2.56,2.56,0,1,0,5.11,0v-.87c0-.08,0-.15,0-.23.89,1.29,1.77,2.52,2.59,3.65.5,0,4.16-1.61,4.66-1.61A42.81,42.81,0,0,0,67,87.56v0l.34-.09,1.09-.29c.66-.17,1.31-.36,2-.57l.56-.16v0A43.06,43.06,0,0,0,97.57,61ZM54,56.24A62,62,0,0,0,55.28,65a6.19,6.19,0,0,0-2.06-.77A11.59,11.59,0,0,0,52.1,57,7.83,7.83,0,0,0,54,56.24Z"/></g><path class="cls-7" d="M36.91,22.17s3-11.43,6.38-14.3c5,.18,9.1,10.73,2.65,16"/><path class="cls-8" d="M40.19,43.39c-2-3.12-14.14-2.46-18.32-3.27-2.87-.56-4.47-5.55-1.26-7.65,1.11-.73,6.61-4.13,11.91-8.14a12.8,12.8,0,0,1,11-2.18S49,10.22,53.24,7.72c5.45,1.16,7.88,13.5-.18,18C54.88,29,60.11,54.23,71.95,58c5.24,1.67,14.09,4.37,18,5.54A45.69,45.69,0,0,1,57.52,91.73C54.28,87,49.45,79.22,49.45,79.22,40.81,63.7,46,52.27,40.19,43.39Z"/><path class="cls-9" d="M33.07,73.37a10.63,10.63,0,0,0,.22,4.13l10.9-5.12,1.46-4.24A6.86,6.86,0,0,0,42,66.82Z"/><path class="cls-10" d="M34.7,74.66c5.43-1.19,11.06-6.52,7-15.37,7.05-1.77,7.16-10.57,5.12-11.49s-7.52,2.47-11.26,7.11l-7.09,1c-4.87-3.43-11.07-5.18-12.78-3.73s.82,9.88,8.09,9.64C22.27,71.44,29.15,75,34.7,74.66Z"/><ellipse class="cls-11" cx="38.35" cy="64.5" rx="1.99" ry="2.11" transform="translate(-8.6 5.96) rotate(-8)"/><path class="cls-11" d="M40.31,64.23c-.17-1.85-1.37-3.14-4-2.34,2,0,2.74.55,2.64,1.66C39,63.54,40.44,65.55,40.31,64.23Z"/><ellipse class="cls-11" cx="28.39" cy="65.9" rx="1.99" ry="2.11" transform="translate(-8.9 4.59) rotate(-8)"/><path class="cls-11" d="M30.35,65.63c-.17-1.85-1.37-3.14-4-2.34,2,0,2.74.55,2.64,1.66C29,64.94,30.48,67,30.35,65.63Z"/><path class="cls-12" d="M46.12,66.82,61.71,90.55c-4.52,1.5-7,6.27-12,6.27-.54,0-6.77-2.21-7.3-2.23-3.86-5.29-9-12.67-10-18.7C39.51,75.6,44.37,69.93,46.12,66.82Z"/><path class="cls-8" d="M54.58,77.57l-1.07,4.3A2.7,2.7,0,0,1,52,83.69L41.2,88.48A2.71,2.71,0,0,0,39.59,91v.92a2.71,2.71,0,1,1-5.43,0V88.19c0-1.08.39-5,3.41-6.55l5.65-3.42a2.71,2.71,0,0,0,1.61-2.12l.26-8.87,1.61-1.61Z"/><path class="cls-13" d="M39.66,71.35l0-.11v0h0a2.65,2.65,0,0,0-3.17-2.29c-1.17.25-1.59.69-2.5.89s-1.48,0-2.65.21a2.65,2.65,0,0,0-2,3.38h0l0,.11v0h0a2.65,2.65,0,0,0,3.17,2.29c1.17-.25,1.59-.69,2.5-.89s1.48,0,2.65-.21a2.65,2.65,0,0,0,2-3.38Z"/><path class="cls-14" d="M37,74a2.23,2.23,0,1,0-3.66.91A3.35,3.35,0,1,0,37,74Zm-.74,4.84a1.75,1.75,0,0,1-1.08-3.33l.24,0,.23-.07a1.75,1.75,0,0,1,.61,3.44Z"/><path class="cls-11" d="M38,28.73a2.87,2.87,0,0,0-2.3,1.2,3.42,3.42,0,0,1-3.1-.41,4,4,0,0,0,2.53,1.9c0,.08,0,.16,0,.24A3.15,3.15,0,0,0,38,34.84a3.15,3.15,0,0,0,2.93-3.18A2.93,2.93,0,0,0,38,28.73Z"/><path class="cls-1" d="M45.48,91A45.48,45.48,0,1,1,91,45.48,45.48,45.48,0,0,1,45.48,91Z"/></g><path class="cls-8" d="M54.58,77.57l-1.07,4.3A2.7,2.7,0,0,1,52,83.69L41.2,88.48A2.71,2.71,0,0,0,39.59,91v.92a2.71,2.71,0,1,1-5.43,0V88.19c0-1.08.39-5,3.41-6.55l5.65-3.42a2.71,2.71,0,0,0,1.61-2.12l.26-8.87,1.61-1.61Z"/><path class="cls-15" d="M137.9,50.09h10.83v-4.3H135.29V40.62h9.61V25.25H119.81V40.62h9.25v5.17H116.49v4.3h10.37a34.84,34.84,0,0,1-11.5,11.52l4.09,4.3a34.28,34.28,0,0,0,9.6-12.09V69h6.23V53.42A35.7,35.7,0,0,0,145.87,65.2l3.73-4.61A35,35,0,0,1,137.9,50.09ZM126,36.72V29.19h12.62v7.53ZM111.35,23c-1.84,8.91-5.11,17-9.4,23.1L104.71,51a49.77,49.77,0,0,0,3-4v22h6.54V34.52a95.67,95.67,0,0,0,3.58-10.4Zm50.12,23.77,4.34-4a47.72,47.72,0,0,0-8-6.76l-4.34,3.74A40,40,0,0,1,161.47,46.76Zm-7.41,18,5.57,3.94A93.6,93.6,0,0,0,168.22,53l-4.6-3.59A87.46,87.46,0,0,1,154.06,64.79Zm9.3-29.61,4.6-4a53.12,53.12,0,0,0-7.82-6.76l-4.6,3.74A47.1,47.1,0,0,1,163.36,35.19Zm23.25-4.92A104.62,104.62,0,0,0,197,27.91L192.84,24c-6,1.79-14.66,3.23-24.73,4.1l3,4.1c4-.31,6.13-.51,8.94-.92v6.93H167.2v4.3h12.87V51h-9.55V68.41h25.9V51h-9.81V42.47h13.13v-4.3H186.61ZM190,55v9.22H176.8V55ZM229.2,29.57h-6.71V39.66H206.64v4.47h15.85c-.09,11.1-2.94,16.26-11.67,21.23l5.51,3.18a25,25,0,0,0,10-9.58c2-3.73,2.8-8.06,2.9-14.83h14.1V39.66H229.2Zm52.39-1.23-2.76,1.89a28.92,28.92,0,0,1,4.36,5.85L286,34.14A30.25,30.25,0,0,0,281.58,28.34ZM257.18,60V49.34a112.71,112.71,0,0,0,21.55-8l-3.81-4a83.53,83.53,0,0,1-17.74,7.41V29.84h-6.8V61.78A4.51,4.51,0,0,0,253,66.25c2,1,5.24,1.33,13.51,1.33,5.23,0,8-.18,13-.55V62.24A133.93,133.93,0,0,1,266,63C257.87,63,257.18,62.75,257.18,60Zm17.14-27.27a35.39,35.39,0,0,1,4.13,5.94l2.9-1.89A39.49,39.49,0,0,0,277.08,31Z"/></svg>