<svg xmlns="http://www.w3.org/2000/svg" width="61.094" height="68" viewBox="0 0 61.094 68">
  <defs>
    <style>
      .cls-1 {
        fill: #365899;
        fill-rule: evenodd;
      }
    </style>
  </defs>
  <path id="ico_hand.svg" class="cls-1" d="M164.358,1056.98l-13.9,8.03c-0.251.15-.97,0.56-1.23,0.71-1.152.67-3.851,2.56-5.626,1.97-2.805-.93-1.548-5.35-1.9-7.18s-0.839-5.44-3.818-8.08c-3.128-2.77-6.284-.17-4.829,3.63a26.241,26.241,0,0,1,.193,13.74c-1.363,4.43-2.8,7.82-3.191,9.92-0.277,1.47-2.249,3.56-2.249,3.56l9.353,16.23s0.307-.18,2.612-1.51c5.453-3.16,8.224-2.26,13.674-5.41,4.148-2.4,8.155-5.04,9.769-5.97a3.376,3.376,0,0,0,1.119-4.63,3.441,3.441,0,0,0-2.253-1.67l1.273-.74a3.374,3.374,0,0,0,1.123-4.63,3.463,3.463,0,0,0-2.36-1.69,3.427,3.427,0,0,0,.582-4.24,3.523,3.523,0,0,0-2.446-1.71l7.545-4.36A3.45,3.45,0,0,0,164.358,1056.98ZM120,1086.17l5.231-3.02,10.909,18.83-5.231,3.03Zm60.713-19.32c-2.6,0-3.5-.65-4-1.16s-1.157-1.4-1.157-4.01a0.325,0.325,0,1,0-.64,0c0,2.61-.653,3.51-1.158,4.01s-1.406,1.16-4,1.16a0.325,0.325,0,1,0,0,.64c2.6,0,3.5.66,4,1.16s1.158,1.41,1.158,4.01a0.325,0.325,0,1,0,.64,0c0-2.6.654-3.5,1.157-4.01s1.4-1.16,4-1.16A0.325,0.325,0,1,0,180.716,1066.85Zm-31.589-16.46c3.572,0,4.807.9,5.5,1.59s1.59,1.94,1.59,5.52a0.441,0.441,0,0,0,.442.51,0.437,0.437,0,0,0,.439-0.51c0-3.58.9-4.82,1.593-5.52s1.928-1.59,5.5-1.59a0.447,0.447,0,0,0,.521-0.44,0.441,0.441,0,0,0-.521-0.44c-3.573,0-4.808-.9-5.5-1.6s-1.593-1.93-1.593-5.51a0.444,0.444,0,0,0-.439-0.52,0.449,0.449,0,0,0-.442.52c0,3.58-.9,4.82-1.59,5.51s-1.93,1.6-5.5,1.6a0.441,0.441,0,0,0-.52.44A0.447,0.447,0,0,0,149.127,1050.39Zm27.415-8a0.3,0.3,0,0,0-.348-0.3c-2.39,0-3.217-.6-3.681-1.06s-1.066-1.3-1.066-3.69a0.3,0.3,0,1,0-.59,0c0,2.39-.6,3.22-1.064,3.69s-1.293,1.06-3.682,1.06a0.3,0.3,0,1,0,0,.59c2.389,0,3.217.61,3.682,1.07s1.064,1.29,1.064,3.69a0.3,0.3,0,1,0,.59,0c0-2.4.6-3.22,1.066-3.69s1.291-1.07,3.682-1.07A0.3,0.3,0,0,0,176.542,1042.39Z" transform="translate(-120 -1037)"/>
</svg>
