<svg xmlns="http://www.w3.org/2000/svg" width="60.625" height="60" viewBox="0 0 60.625 60">
  <defs>
    <style>
      .cls-1 {
        fill: #365899;
        fill-rule: evenodd;
      }
    </style>
  </defs>
  <path id="ico_search.svg" class="cls-1" d="M194.555,421.823l-6.043-5.98a17.723,17.723,0,0,1-1.089,1.481l-2.229-2.206h0a28.1,28.1,0,0,0,7.148-18.743,28.542,28.542,0,1,0-9.731,21.3h0l2.228,2.2a17.524,17.524,0,0,1-1.5,1.079l6.043,5.98a3.682,3.682,0,0,0,5.17,0A3.591,3.591,0,0,0,194.555,421.823Zm-30.885-1.638a23.812,23.812,0,1,1,24.059-23.81A23.935,23.935,0,0,1,163.67,420.185Zm0-19.174c0.407,0,.406-1.21,2.235-4.357,1.913-3.29,5.448-6.05,5.448-10.466a7.683,7.683,0,0,0-15.366,0c0,4.416,3.535,7.176,5.447,10.466C163.264,399.8,163.263,401.011,163.67,401.011Zm0-17.74a2.916,2.916,0,1,1-2.939,2.917A2.928,2.928,0,0,1,163.67,383.271Zm6.384,11.994v14.3L178.3,406.2V391.9Zm-4.465,5.469a6.467,6.467,0,0,1-.365.816,1.74,1.74,0,0,1-3.108,0,6.467,6.467,0,0,1-.365-0.816,22.984,22.984,0,0,0-1.623-3.332c-0.177-.306-0.373-0.608-0.58-0.911V406.2l8.244,3.362v-13.07c-0.207.3-.4,0.606-0.58,0.911A22.984,22.984,0,0,0,165.589,400.734Zm-16.548-5.469v14.3l8.244-3.362V393.448c-0.284-.39-0.563-0.791-0.83-1.206Z" transform="translate(-135 -368)"/>
</svg>
