<svg xmlns="http://www.w3.org/2000/svg" width="60.063" height="60" viewBox="0 0 60.063 60">
  <defs>
    <style>
      .cls-1 {
        fill: #365899;
        fill-rule: evenodd;
      }
    </style>
  </defs>
  <path id="ico_japan.svg" class="cls-1" d="M172.924,435.931a1.527,1.527,0,0,1-1.528,1.526h-3.212a1.527,1.527,0,0,1-1.528-1.526v-0.7a1.527,1.527,0,0,1,1.528-1.526H171.4a1.527,1.527,0,0,1,1.528,1.526v0.7ZM158.935,430h-0.269a1.527,1.527,0,0,0-1.527,1.527v2.108a1.3,1.3,0,0,0,1.067,1.527h0.168c0.729,0,.561.683,0.561,1.527v0.989a1.528,1.528,0,0,0,1.527,1.526H162.8a1.527,1.527,0,0,0,1.527-1.527v-6.15A1.527,1.527,0,0,0,162.8,430h-3.863Zm18.974-12.848a1.526,1.526,0,0,0-1.492,1.2l-0.853,3.934a1.529,1.529,0,0,1-1.494,1.2h-9.565a1.527,1.527,0,0,0-1.527,1.526v1.156a1.527,1.527,0,0,0,1.527,1.526h0.314a1.528,1.528,0,0,1,1.527,1.528v0.759a1.528,1.528,0,0,0,1.528,1.527h11.842a1.529,1.529,0,0,0,1.492-1.2L183.683,419a1.527,1.527,0,0,0-1.493-1.852h-4.281Zm9.419-3.314a1.526,1.526,0,0,1-1.5,1.238h-6.642a1.527,1.527,0,0,1-1.5-1.812l0.96-5.026a1.528,1.528,0,0,1,1.5-1.241h6.643a1.527,1.527,0,0,1,1.5,1.814Zm16.655,34.991L198,442.845a17.46,17.46,0,0,1-1.08,1.481l-2.207-2.206h0a28.395,28.395,0,1,0-2.558,2.557h0l2.208,2.206a17.469,17.469,0,0,1-1.483,1.078l5.986,5.981A3.62,3.62,0,1,0,203.983,448.825Zm-30.591-1.638a23.813,23.813,0,1,1,23.83-23.812A23.821,23.821,0,0,1,173.392,447.187Z" transform="translate(-145 -395)"/>
</svg>
