<svg xmlns="http://www.w3.org/2000/svg" width="38.719" height="54" viewBox="0 0 38.719 54">
  <defs>
    <style>
      .cls-1 {
        fill: #365899;
        fill-rule: evenodd;
      }
    </style>
  </defs>
  <path id="ico_train.svg" class="cls-1" d="M485.34,416.638v-0.067H465.686v0.067h-1.1l-6.5,8.362h4.786l1.437-2.134h22.367L488.113,425H492.9l-6.5-8.362H485.34ZM465.7,420.807l1.467-2.178h16.662l1.466,2.178H465.7Zm9.8-49.807c-15.02,0-19.356,5.482-19.356,9.667v27.275a6.649,6.649,0,0,0,6.629,6.667H488.22a6.647,6.647,0,0,0,6.628-6.667V380.667C494.848,376.482,490.513,371,475.493,371Zm-7.016,6.01h14.031a1.7,1.7,0,0,1,0,3.4H468.477A1.7,1.7,0,0,1,468.477,377.01Zm-3.021,32.376a2.7,2.7,0,1,1,2.684-2.7A2.692,2.692,0,0,1,465.456,409.386Zm8.563-13.15H462.778V385.893h11.241v10.343Zm11.512,13.15a2.7,2.7,0,1,1,2.684-2.7A2.693,2.693,0,0,1,485.531,409.386Zm3.177-13.15H476.967V385.893h11.741v10.343Z" transform="translate(-456.125 -371)"/>
</svg>
