<svg xmlns="http://www.w3.org/2000/svg" width="40.031" height="40.12" viewBox="0 0 40.031 40.12">
  <defs>
    <style>
      .cls-1 {
        fill: #ffa096;
        fill-rule: evenodd;
      }
    </style>
  </defs>
  <path id="ico_pen.svg" class="cls-1" d="M94.482,2013.25l-7.329-7.31a1.691,1.691,0,0,0-2.406,0l-21.724,21.67,9.735,9.71,21.724-21.67A1.694,1.694,0,0,0,94.482,2013.25Zm-29.406,29.33a1.709,1.709,0,0,0,2.406,0l3.469-3.46-9.735-9.71-3.469,3.46a1.694,1.694,0,0,0,0,2.4l0.514,0.51-3.1,7.03a1.982,1.982,0,0,0,1.819,2.78,1.921,1.921,0,0,0,.871-0.2l6.752-3.29Z" transform="translate(-54.969 -2005.47)"/>
</svg>
