<svg id="btn_header02.svg" xmlns="http://www.w3.org/2000/svg" width="62" height="65" viewBox="0 0 62 65">
  <defs>
    <style>
      .cls-1, .cls-2 {
        fill: #365899;
      }

      .cls-1 {
        fill-rule: evenodd;
      }

      .cls-2 {
        font-size: 20px;
        text-anchor: middle;
        font-family: UDShinGoCOeizPr6N-Reg, "A-OTF UD Shin Go Con80 Pr6N";
      }
    </style>
  </defs>
  <path id="長方形_847" data-name="長方形 847" class="cls-1" d="M578.5,178h34a1.5,1.5,0,0,1,0,3h-34A1.5,1.5,0,0,1,578.5,178Zm0-14h34a1.5,1.5,0,0,1,0,3h-34A1.5,1.5,0,0,1,578.5,164Zm0-14h34a1.5,1.5,0,0,1,0,3h-34A1.5,1.5,0,0,1,578.5,150Z" transform="translate(-566 -150)"/>
  <text id="メニュー" class="cls-2" x="31" y="63.5">メニュー</text>
</svg>
