<svg xmlns="http://www.w3.org/2000/svg" width="49.156" height="81" viewBox="0 0 49.156 81">
  <defs>
    <style>
      .cls-1 {
        fill: #fadb37;
        fill-rule: evenodd;
      }
    </style>
  </defs>
  <path id="ico_starLeft.svg" class="cls-1" d="M82.238,7699.97c-5.038,0-6.779-1.27-7.76-2.25s-2.242-2.73-2.242-7.78a0.63,0.63,0,1,0-1.24,0c0,5.05-1.267,6.8-2.245,7.78s-2.726,2.25-7.758,2.25a0.633,0.633,0,1,0,0,1.25c5.032,0,6.776,1.27,7.758,2.25S71,7706.2,71,7711.26a0.628,0.628,0,1,0,1.24,0c0-5.06,1.267-6.81,2.242-7.79s2.723-2.25,7.76-2.25A0.633,0.633,0,1,0,82.238,7699.97ZM41,7664.02c6.925,0,9.319,1.74,10.665,3.09s3.084,3.76,3.084,10.7a0.866,0.866,0,1,0,1.708,0c0-6.94,1.741-9.35,3.087-10.7s3.737-3.09,10.665-3.09a0.871,0.871,0,1,0,0-1.72c-6.928,0-9.322-1.74-10.665-3.09s-3.087-3.75-3.087-10.7a0.866,0.866,0,1,0-1.708,0c0,6.95-1.738,9.35-3.084,10.7s-3.74,3.09-10.665,3.09A0.871,0.871,0,1,0,41,7664.02Zm48.147-22.53a0.576,0.576,0,0,0-.675-0.57c-4.634,0-6.238-1.17-7.137-2.07s-2.066-2.51-2.066-7.16a0.58,0.58,0,1,0-1.143,0c0,4.65-1.164,6.25-2.063,7.16s-2.507,2.07-7.137,2.07a0.578,0.578,0,1,0,0,1.14c4.631,0,6.235,1.17,7.138,2.08s2.063,2.51,2.063,7.16a0.579,0.579,0,1,0,1.143,0c0-4.65,1.167-6.26,2.066-7.16s2.5-2.08,7.137-2.08A0.57,0.57,0,0,0,89.149,7641.49Z" transform="translate(-40 -7631)"/>
</svg>
