<svg xmlns="http://www.w3.org/2000/svg" width="30" height="30" viewBox="0 0 30 30">
  <defs>
    <style>
      .cls-1 {
        fill: #365899;
        fill-rule: evenodd;
      }
    </style>
  </defs>
  <path id="ico_phone.svg" class="cls-1" d="M231.4,6752.59a0.973,0.973,0,0,0-1.3-.07l-1.824,1.48a0.973,0.973,0,0,1-1.235-.02,24.024,24.024,0,0,1-3.27-2.76,24.4,24.4,0,0,1-2.762-3.27,0.964,0.964,0,0,1-.013-1.23l1.471-1.83a0.964,0.964,0,0,0-.069-1.29l-3.494-3.5a0.982,0.982,0,0,0-1.311-.06l-4.382,3.69a0.964,0.964,0,0,0-.231,1.2s0.589,1.2,1.137,2.12a43.528,43.528,0,0,0,13.824,13.83c0.921,0.54,2.123,1.13,2.123,1.13a0.968,0.968,0,0,0,1.2-.23l3.681-4.38a0.97,0.97,0,0,0-.057-1.31Zm0.861-4.68,1.454-.23a7.708,7.708,0,0,0-6.4-6.4l-0.231,1.45a6.322,6.322,0,0,1,3.423,1.75A6.209,6.209,0,0,1,232.265,6747.91Zm5.85-11.03a16.945,16.945,0,0,0-9.346-4.76l-0.228,1.46a15.506,15.506,0,0,1,12.881,12.88l1.455-.23A16.936,16.936,0,0,0,238.115,6736.88Zm-10.07-.18-0.228,1.45a10.866,10.866,0,0,1,9.03,9.03l1.455-.23A12.326,12.326,0,0,0,228.045,6736.7Z" transform="translate(-212.875 -6732.13)"/>
</svg>
