<svg xmlns="http://www.w3.org/2000/svg" width="48" height="45.72" viewBox="0 0 48 45.72">
  <defs>
    <style>
      .cls-1 {
        fill: #365899;
        fill-rule: evenodd;
      }
    </style>
  </defs>
  <path id="ico_kiyaku.svg" class="cls-1" d="M239.785,1084.68a2.552,2.552,0,0,0-1.58-1.86l-2.831-1.11v2.92l0.536,0.2a0.777,0.777,0,0,1,.265,1.27l-18.162,18.16a1.271,1.271,0,0,1-1.371.29l-4.036-1.57v2.91l2.833,1.1a4.334,4.334,0,0,0,4.66-.98l18.99-18.99A2.569,2.569,0,0,0,239.785,1084.68Zm-45.04,7.68c0.127-1.77.7-4.09,2.669-3.98l18.015,7.01a4.352,4.352,0,0,0,4.67-.99l17.413-17.54a2.559,2.559,0,0,0-.888-4.19l-17.906-6.97a4.352,4.352,0,0,0-4.67.99L193.877,1087c-1.6,1.32-2.029,3.77-2.029,5.94s0.144,4.79,2.61,5.8l-0.581-.13,5.431,2.11v-1.95a4.426,4.426,0,0,1,.1-0.92l-3.65-1.42C194.6,1095.99,194.6,1094.41,194.745,1092.36Zm7.512,4.97a2.027,2.027,0,0,0-.6,1.44v9.01l3.827-.82,4.77,4.17v-9.01a2.068,2.068,0,0,1,.6-1.45l1.525-1.52-8.6-3.35Z" transform="translate(-191.844 -1065.41)"/>
</svg>
