<svg xmlns="http://www.w3.org/2000/svg" width="20" height="26" viewBox="0 0 20 26">
  <defs>
    <style>
      .cls-1 {
        fill: #555;
        fill-rule: evenodd;
      }
    </style>
  </defs>
  <path id="ico_q.svg" class="cls-1" d="M99.79,538l2.224-2.621-3.266-2.656a0.277,0.277,0,0,0,.052-0.071,0.16,0.16,0,0,0,.017-0.071,7.192,7.192,0,0,0,.66-2.39,53.672,53.672,0,0,0,.174-5.366,54.14,54.14,0,0,0-.174-5.419,7.4,7.4,0,0,0-.626-2.337c-0.047-.094-0.093-0.183-0.139-0.266s-0.093-.171-0.139-0.265a0.637,0.637,0,0,0-.1-0.195,0.615,0.615,0,0,1-.1-0.2,9.773,9.773,0,0,0-2.885-2.851,9.033,9.033,0,0,0-9.314,0,9.76,9.76,0,0,0-2.884,2.851,0.638,0.638,0,0,1-.1.2,0.614,0.614,0,0,0-.1.195c-0.047.094-.093,0.183-0.139,0.265s-0.093.172-.139,0.266a7.366,7.366,0,0,0-.626,2.337,84.287,84.287,0,0,0,0,10.82,7.389,7.389,0,0,0,.626,2.355c0.046,0.1.092,0.183,0.139,0.266s0.092,0.171.139,0.266a0.61,0.61,0,0,0,.1.194,0.649,0.649,0,0,1,.1.2,9.576,9.576,0,0,0,2.884,2.833,8.2,8.2,0,0,0,4.657,1.275,8.579,8.579,0,0,0,3.3-.6,8.894,8.894,0,0,0,2.537-1.558L99.79,538h0ZM93.6,532.933a4.555,4.555,0,0,1-1.216.638,4.644,4.644,0,0,1-1.564.248,4.493,4.493,0,0,1-2.276-.549A5.329,5.329,0,0,1,87,531.977c-0.047-.071-0.1-0.141-0.156-0.212a2.428,2.428,0,0,1-.156-0.213,5.462,5.462,0,0,1-.73-2.054,52.516,52.516,0,0,1,0-9.35,5.469,5.469,0,0,1,.73-2.054,2.428,2.428,0,0,1,.156-0.213A2.493,2.493,0,0,0,87,517.669a5.345,5.345,0,0,1,1.546-1.293,4.493,4.493,0,0,1,2.276-.549,4.593,4.593,0,0,1,2.294.549,4.856,4.856,0,0,1,1.529,1.293,2.276,2.276,0,0,0,.156.212q0.086,0.106.156,0.213a5.469,5.469,0,0,1,.73,2.054,33.866,33.866,0,0,1,.209,4.675q0,2.09-.07,3.329a9,9,0,0,1-.278,1.948l-2.885-2.337-2.224,2.62,3.162,2.55h0Z" transform="translate(-82 -512)"/>
</svg>
