<svg xmlns="http://www.w3.org/2000/svg" width="48" height="48" viewBox="0 0 48 48">
  <defs>
    <style>
      .cls-1 {
        fill: #365899;
        fill-rule: evenodd;
      }
    </style>
  </defs>
  <path id="ico_maruQ.svg" class="cls-1" d="M231.969,985.03A24,24,0,1,0,239,1002,23.934,23.934,0,0,0,231.969,985.03Zm-3.519,3.52A19.022,19.022,0,1,1,215,982.979,18.949,18.949,0,0,1,228.45,988.55Zm-14.692,20.32a2.415,2.415,0,1,0,2.41,2.42A2.414,2.414,0,0,0,213.758,1008.87ZM208.284,994.3l1.642,1.316a0.888,0.888,0,0,0,1.136-.024,2.24,2.24,0,0,1,.834-0.726,5.278,5.278,0,0,1,2.691-.652,4.086,4.086,0,0,1,2.651.947,2.973,2.973,0,0,1,.7.854,1.559,1.559,0,0,1,.2.711,2.945,2.945,0,0,1-.3,1.391,2.813,2.813,0,0,1-.536.719,5.97,5.97,0,0,1-1.308.936c-0.514.289-1.068,0.549-1.627,0.849a5.13,5.13,0,0,0-1.814,1.63,4.363,4.363,0,0,0-.568,1.26,5.369,5.369,0,0,0-.181,1.42v0.95a0.881,0.881,0,0,0,.887.88h2.136a0.881,0.881,0,0,0,.886-0.88v-0.95a1.351,1.351,0,0,1,.043-0.38,0.474,0.474,0,0,1,.113-0.22,1.653,1.653,0,0,1,.4-0.29c0.321-.18.836-0.42,1.42-0.74a9.3,9.3,0,0,0,2.831-2.19,6.624,6.624,0,0,0,1.112-1.919,7.108,7.108,0,0,0,.421-2.466,5.451,5.451,0,0,0-.645-2.524,7.129,7.129,0,0,0-2.711-2.789,8.079,8.079,0,0,0-4.1-1.108,9.194,9.194,0,0,0-4.631,1.166,5.184,5.184,0,0,0-1.7,1.465A0.888,0.888,0,0,0,208.284,994.3Z" transform="translate(-191 -978)"/>
</svg>
