<svg xmlns="http://www.w3.org/2000/svg" width="40" height="30" viewBox="0 0 40 30">
  <defs>
    <style>
      .cls-1 {
        fill: #365899;
        fill-rule: evenodd;
      }
    </style>
  </defs>
  <path id="ico_school.svg" class="cls-1" d="M63.74,1193.02H54.995v-6.86a1.052,1.052,0,0,0-.559-0.86l-8.877-4.2a1.444,1.444,0,0,0-1.117,0l-8.877,4.2a1.052,1.052,0,0,0-.559.86v6.86H26.26a1.227,1.227,0,0,0-1.249,1.19v15.6A1.227,1.227,0,0,0,26.26,1211H41.252v-5.57a3.753,3.753,0,0,1,7.5,0V1211H63.74a1.227,1.227,0,0,0,1.249-1.19v-15.6A1.227,1.227,0,0,0,63.74,1193.02Zm-31.283,12.94a0.551,0.551,0,0,1-.562.54H28.971a0.551,0.551,0,0,1-.562-0.54v-2.77a0.55,0.55,0,0,1,.562-0.53h2.923a0.549,0.549,0,0,1,.562.53v2.77Zm0-5.11a0.549,0.549,0,0,1-.562.53H28.971a0.55,0.55,0,0,1-.562-0.53v-2.77a0.55,0.55,0,0,1,.562-0.53h2.923a0.549,0.549,0,0,1,.562.53v2.77Zm5.4,5.11a0.551,0.551,0,0,1-.562.54H34.368a0.551,0.551,0,0,1-.562-0.54v-2.77a0.549,0.549,0,0,1,.562-0.53h2.923a0.549,0.549,0,0,1,.562.53v2.77Zm0-5.11a0.549,0.549,0,0,1-.562.53H34.368a0.549,0.549,0,0,1-.562-0.53v-2.77a0.549,0.549,0,0,1,.562-0.53h2.923a0.549,0.549,0,0,1,.562.53v2.77ZM45,1192.91a3.2,3.2,0,1,1,3.373-3.2A3.288,3.288,0,0,1,45,1192.91Zm11.194,13.05a0.551,0.551,0,0,1-.562.54H52.708a0.551,0.551,0,0,1-.562-0.54v-2.77a0.549,0.549,0,0,1,.562-0.53h2.923a0.549,0.549,0,0,1,.562.53v2.77Zm0-5.11a0.549,0.549,0,0,1-.562.53H52.708a0.549,0.549,0,0,1-.562-0.53v-2.77a0.549,0.549,0,0,1,.562-0.53h2.923a0.549,0.549,0,0,1,.562.53v2.77Zm5.4,5.11a0.551,0.551,0,0,1-.562.54H58.105a0.551,0.551,0,0,1-.562-0.54v-2.77a0.55,0.55,0,0,1,.562-0.53h2.923a0.549,0.549,0,0,1,.562.53v2.77Zm0-5.11a0.549,0.549,0,0,1-.562.53H58.105a0.55,0.55,0,0,1-.562-0.53v-2.77a0.55,0.55,0,0,1,.562-0.53h2.923a0.549,0.549,0,0,1,.562.53v2.77Z" transform="translate(-25 -1181)"/>
</svg>
