<svg xmlns="http://www.w3.org/2000/svg" width="49" height="80.94" viewBox="0 0 49 80.94">
  <defs>
    <style>
      .cls-1 {
        fill: #fadb37;
        fill-rule: evenodd;
      }
    </style>
  </defs>
  <path id="ico_starRight.svg" class="cls-1" d="M556.9,7699.95c5.022,0,6.757-1.27,7.736-2.25s2.235-2.73,2.235-7.78a0.627,0.627,0,1,1,1.236,0c0,5.05,1.263,6.8,2.238,7.78s2.717,2.25,7.733,2.25a0.624,0.624,0,0,1,.733.62,0.632,0.632,0,0,1-.733.63c-5.016,0-6.755,1.27-7.733,2.25s-2.238,2.73-2.238,7.78a0.627,0.627,0,1,1-1.236,0c0-5.05-1.263-6.8-2.235-7.78s-2.714-2.25-7.736-2.25A0.633,0.633,0,1,1,556.9,7699.95ZM598,7664.02c-6.9,0-9.29,1.75-10.632,3.1s-3.074,3.75-3.074,10.69a0.864,0.864,0,1,1-1.7,0c0-6.94-1.736-9.35-3.077-10.69s-3.726-3.1-10.632-3.1a0.852,0.852,0,0,1-1-.85,0.866,0.866,0,0,1,1-.86c6.906,0,9.293-1.74,10.632-3.09s3.077-3.75,3.077-10.69a0.864,0.864,0,1,1,1.7,0c0,6.94,1.733,9.34,3.074,10.69s3.729,3.09,10.632,3.09A0.866,0.866,0,1,1,598,7664.02Zm-47.994-22.51a0.575,0.575,0,0,1,.673-0.57c4.619,0,6.218-1.17,7.114-2.07s2.06-2.51,2.06-7.15a0.578,0.578,0,1,1,1.139,0c0,4.64,1.16,6.25,2.057,7.15s2.5,2.07,7.114,2.07a0.582,0.582,0,1,1,0,1.15c-4.616,0-6.215,1.17-7.114,2.07s-2.057,2.51-2.057,7.16a0.577,0.577,0,1,1-1.139,0c0-4.65-1.163-6.26-2.06-7.16s-2.5-2.07-7.115-2.07A0.577,0.577,0,0,1,550.007,7641.51Z" transform="translate(-550 -7631.03)"/>
</svg>
